<svg width="20" height="21" viewBox="0 0 20 21" fill="none" xmlns="http://www.w3.org/2000/svg">
<path d="M9.8304 1.11523C6.23672 1.11523 3.31299 4.03897 3.31299 7.63264C3.31299 12.1495 9.83681 19.8652 9.83681 19.8652C9.83681 19.8652 16.3478 11.9274 16.3478 7.63264C16.3478 4.03897 13.4242 1.11523 9.8304 1.11523ZM11.7968 9.54095C11.2546 10.0831 10.5426 10.3542 9.8304 10.3542C9.11835 10.3542 8.40607 10.0831 7.86407 9.54095C6.77975 8.45673 6.77975 6.69251 7.86407 5.60818C8.38913 5.0829 9.08756 4.79359 9.8304 4.79359C10.5732 4.79359 11.2716 5.08302 11.7968 5.60818C12.8812 6.69251 12.8812 8.45673 11.7968 9.54095Z" fill="#E68911"/>
</svg>
